PathFileType        4      (X/Y/Z)      C:\Users\aurel\Documents\opensim-MSc\data\transformed_83_35.trc
DataRate	CameraRate	NumFrames	NumMarkers	Units	OrigDataRate	OrigDataStartFrame	OrigNumFrames
120.0	120.0	4	41	mm	120.0	132	1048
Frame#	Time	LFWT			RFWT			LBWT			RBWT			LTHI			LKNE			LSHN			LANK			LHEE			LMT5			LTOE			RTHI			RKNE			RSHN			RANK			RHEE			RMT5			RTOE			CLAV			STRN			C7			T10			RBAC			LFHD			RFHD			LBHD			RBHD			LSHO			LUPA			LELB			LFRM			LWRA			LWRB			LFIN			RSHO			RUPA			RELB			RFRM			RWRA			RWRB			RFIN
		X1	Y1	Z1	X2	Y2	Z2	X3	Y3	Z3	X4	Y4	Z4	X5	Y5	Z5	X6	Y6	Z6	X7	Y7	Z7	X8	Y8	Z8	X9	Y9	Z9	X10	Y10	Z10	X11	Y11	Z11	X12	Y12	Z12	X13	Y13	Z13	X14	Y14	Z14	X15	Y15	Z15	X16	Y16	Z16	X17	Y17	Z17	X18	Y18	Z18	X19	Y19	Z19	X20	Y20	Z20	X21	Y21	Z21	X22	Y22	Z22	X23	Y23	Z23	X24	Y24	Z24	X25	Y25	Z25	X26	Y26	Z26	X27	Y27	Z27	X28	Y28	Z28	X29	Y29	Z29	X30	Y30	Z30	X31	Y31	Z31	X32	Y32	Z32	X33	Y33	Z33	X34	Y34	Z34	X35	Y35	Z35	X36	Y36	Z36	X37	Y37	Z37	X38	Y38	Z38	X39	Y39	Z39	X40	Y40	Z40	X41	Y41	Z41
132	1.092	-1694.78613	881.1150500000002	355.85122999999993	-1692.71863	872.0033000000002	621.44092	-1860.0856899999999	960.7360200000003	406.49495999999994	-1853.6975099999997	962.8192100000002	547.0241699999999	-1774.25586	590.4111300000002	310.85213999999996	-1778.62183	438.1484700000002	335.44159	-1824.36487	207.19847000000024	315.93439	-1858.45227	77.74818000000025	339.67572	-1914.54089	60.89083000000026	382.98624	-1760.69946	34.30313000000024	313.60269	-1721.05457	53.69232000000024	399.96664	-1774.1311	663.6109000000002	650.21533	-1786.85303	439.0677800000003	613.32617	-1824.49512	328.3790900000003	635.42419	-1855.24133	57.70646000000026	567.19855	-1920.68433	16.050180000000267	518.5495	-1751.01855	33.53866000000025	601.12128	-1712.61108	52.24634000000024	524.88385	-1683.2751499999997	1310.4231000000002	462.5046699999999	-1672.5571299999997	1132.3298300000001	465.29885999999993	-1808.9669199999998	1392.3121300000003	459.24288999999993	-1887.2475599999998	1181.3704800000003	468.71538999999996	-1880.1142599999998	1272.9964600000003	543.9911499999998	-1598.4074699999999	1547.2862500000003	395.1224999999999	-1620.0468799999999	1539.8072500000003	555.0805699999999	-1751.8452099999997	1519.8435100000002	402.8545799999999	-1770.0291699999998	1519.1604000000002	512.6480099999999	-1770.9227299999998	1382.4940200000003	318.7365699999999	-1822.0717799999998	1166.8315400000001	239.6573899999999	-1845.3729199999998	1069.0954600000002	235.89713999999995	-1846.91479	901.2394400000002	224.92882999999995	-1718.11963	807.7416400000002	236.07915999999994	-1855.60046	796.4396400000003	181.84804999999994	-1766.15417	740.2858900000002	196.08805999999996	-1766.5065899999997	1375.4311500000001	614.0651899999999	-1803.7877199999998	1263.9620400000001	685.0567599999999	-1870.5158699999997	1074.9794900000002	686.1579599999999	-1879.0762899999997	1000.4129000000003	678.4542199999999	-1720.65991	816.6826800000002	732.66846	-1863.49011	801.6243300000002	755.88574	-1829.79443	764.5100700000003	753.14288
133	1.1	-1694.96008	881.2591600000002	355.99935999999997	-1692.77893	871.9473900000003	621.60321	-1860.0460199999998	960.8079800000003	406.6610999999999	-1853.6741899999997	962.7828400000002	547.0424799999998	-1774.29517	590.3878200000003	310.8267799999999	-1778.42249	438.45123000000024	335.5256	-1824.29407	207.24023000000025	315.96664	-1858.46216	77.70269000000025	339.70743	-1914.54089	60.89083000000026	382.98624	-1760.71375	34.260860000000235	313.65988	-1720.99597	53.59202000000023	399.87012	-1773.99207	663.5004300000003	650.29633	-1786.56006	439.0732400000003	613.22125	-1824.4032	328.33527000000026	635.50751	-1855.26123	57.68002000000026	567.22223	-1920.65442	16.081870000000265	518.59363	-1751.23401	33.76406000000025	601.0755	-1712.78979	52.11632000000024	524.76978	-1683.2523199999998	1310.4083300000002	462.82372999999995	-1672.4416499999998	1131.9803500000003	465.54635999999994	-1808.9354199999998	1392.4754600000003	459.36339999999996	-1887.3531499999997	1181.4537400000002	468.76201999999995	-1880.0296599999997	1273.0065900000002	544.1120599999999	-1598.3013899999999	1547.0368700000001	395.0192899999999	-1619.5280799999998	1539.4270000000001	555.0733599999999	-1751.7851599999997	1519.7149700000002	403.02587999999986	-1769.7239999999997	1518.9262700000002	512.8638899999999	-1770.8370399999997	1382.4188200000003	318.82280999999995	-1821.8784199999998	1166.7095900000002	239.85146999999992	-1845.2943099999998	1069.1408700000002	235.92931999999993	-1846.26611	901.2556200000002	225.15209999999993	-1717.78491	808.0814200000002	236.16323999999994	-1855.07361	796.3156100000002	181.87644999999995	-1765.31787	740.3870200000002	196.34809999999993	-1766.4324999999997	1375.4150400000003	614.1605199999999	-1803.7010499999997	1263.8724400000003	685.1490499999999	-1870.2733199999998	1075.0000000000002	686.2548199999999	-1878.9639899999997	1000.2709400000002	678.4869999999999	-1720.17676	816.7941300000002	732.71533	-1863.09558	801.7014200000002	755.94196	-1829.61133	764.6406900000002	753.24731
134	1.108	-1695.04028	881.4911500000002	356.23736999999994	-1692.7251	872.1258500000002	621.95074	-1859.9179699999997	960.6313500000002	406.74318999999997	-1853.6351299999997	962.7201500000002	547.1043099999999	-1774.53564	590.4013100000002	310.8813799999999	-1778.68237	438.2001600000002	335.40765	-1824.15259	207.32857000000027	315.98694	-1858.51697	77.68140000000024	339.72217	-1914.54089	60.89083000000026	382.98624	-1760.67542	34.307850000000236	313.64316	-1720.96655	53.45001000000023	399.87128	-1773.80615	663.5256300000002	650.64368	-1786.26135	439.0384800000003	613.20264	-1824.27881	328.2818600000003	635.45428	-1855.19568	57.61877000000026	567.14532	-1920.34888	15.932400000000266	518.68579	-1751.2677	33.89652000000025	601.01306	-1713.04419	52.034370000000244	524.76672	-1683.1690699999997	1310.3568100000002	463.00454999999994	-1672.2661099999998	1131.7922400000002	465.65163999999993	-1808.8475299999998	1392.3270300000001	459.64095999999995	-1887.3303199999998	1181.3774400000002	468.89705999999995	-1880.0025599999997	1273.0803200000003	544.2824099999999	-1598.2418199999997	1547.2016600000002	395.4851999999999	-1619.8255599999998	1539.3487500000003	555.5082399999999	-1751.8015099999998	1519.8310500000002	403.2361499999999	-1769.6696799999997	1518.9117400000002	512.9818699999998	-1770.7985799999997	1382.3498500000003	318.94106999999997	-1821.6942099999999	1166.4234600000002	240.0523499999999	-1845.1060799999998	1069.0438200000003	235.90902999999994	-1845.61389	901.2270500000002	225.32204999999993	-1717.35547	808.5054300000003	236.33861999999993	-1854.71741	796.2296800000003	181.86057999999994	-1764.35718	740.6187700000003	196.48211999999995	-1766.2886999999998	1375.4132100000002	614.2877799999999	-1803.6696799999997	1263.7380400000002	685.2498799999998	-1870.0535899999998	1074.9950000000001	686.4439699999999	-1878.7061799999997	1000.1507000000003	678.5169099999999	-1719.72705	817.0730000000002	732.9411	-1862.60217	801.6790800000002	755.98071	-1828.99817	764.5788600000002	753.16724
135	1.117	-1695.08777	881.5802000000002	356.59331999999995	-1692.79919	872.4561800000002	622.3244	-1859.8038299999998	960.3147000000002	406.77324999999996	-1853.5935099999997	962.7109400000003	547.1196899999999	-1774.6145	590.4928000000002	311.02047999999996	-1778.29785	438.56348000000025	335.54129	-1824.08179	207.37512000000027	315.97498	-1858.60242	77.65511000000024	339.68375	-1914.53577	61.07191000000026	383.06091	-1760.55249	34.162740000000234	313.56784	-1720.95996	53.40837000000023	399.86929	-1773.74573	663.5584100000002	650.95758	-1786.04443	439.0839800000003	613.22046	-1824.21021	328.2473800000003	635.40503	-1855.13013	57.55752000000026	567.06836	-1920.22974	16.043380000000266	518.82935	-1751.22119	33.85842000000025	601.08203	-1713.08215	52.064660000000245	524.86212	-1682.9370099999999	1310.3643800000002	462.93377999999996	-1672.0438199999999	1131.7048300000001	465.72320999999994	-1808.8425299999997	1392.2850300000002	459.96477999999996	-1887.1954299999998	1181.2658700000002	469.0548999999999	-1879.9736299999997	1273.1495400000001	544.3386799999998	-1598.0269799999999	1547.6905500000003	396.5137299999999	-1620.5356399999998	1539.5510300000003	556.4672899999999	-1751.7252199999998	1520.1110800000001	403.5382699999999	-1769.6690699999997	1519.0645800000002	513.0590799999999	-1770.6707799999997	1382.1845700000001	319.10833999999994	-1821.5185499999998	1166.2417000000003	240.20702999999992	-1844.8402099999998	1068.9539800000002	235.81501999999995	-1845.20203	901.2421300000002	225.25771999999995	-1716.75598	808.7976100000002	236.51053999999993	-1854.20166	796.1304900000002	181.94198999999995	-1763.66919	740.8492400000002	196.57503999999994	-1766.0262499999997	1375.3143300000002	614.4214499999999	-1803.5732399999997	1263.5972900000002	685.3743899999998	-1870.0258799999997	1074.8299600000003	686.6340299999999	-1878.4805899999997	1000.0575000000002	678.5674399999999	-1719.12781	817.2830800000003	733.07813	-1861.82458	801.5340000000002	755.91174	-1828.24658	764.5543800000003	753.08392
